<?xml version="1.0" standalone="no"?>
<!DOCTYPE svg PUBLIC "-//W3C//DTD SVG 20010904//EN"
 "http://www.w3.org/TR/2001/REC-SVG-20010904/DTD/svg10.dtd">
<svg version="1.0" xmlns="http://www.w3.org/2000/svg"
 width="1024.000000pt" height="1084.000000pt" viewBox="0 0 1024.000000 1084.000000"
 preserveAspectRatio="xMidYMid meet">
<metadata>
Created by potrace 1.15, written by Peter Selinger 2001-2017
</metadata>
<g transform="translate(0.000000,1084.000000) scale(0.100000,-0.100000)"
fill="#000000" stroke="none">
<path d="M5280 9812 c-226 -102 -478 -294 -808 -617 -157 -153 -423 -443 -431
-468 -2 -7 43 33 100 89 334 323 641 504 883 517 l69 4 84 154 c126 230 194
359 191 359 -2 0 -41 -17 -88 -38z"/>
<path d="M3660 9439 c0 -5 -5 -7 -12 -3 -7 4 -8 3 -4 -4 4 -6 13 -9 21 -5 8 3
15 0 15 -6 0 -6 -3 -10 -7 -10 -5 1 -10 0 -13 -1 -22 -8 -39 -7 -34 3 3 7 -4
1 -15 -12 -12 -12 -18 -28 -14 -34 3 -5 1 -7 -4 -4 -14 9 -37 -19 -28 -33 4
-6 1 -9 -6 -8 -31 7 -265 -342 -367 -547 -215 -433 -316 -872 -315 -1375 1
-467 95 -945 285 -1460 56 -153 79 -192 43 -75 -35 111 -81 337 -106 516 -27
196 -37 615 -19 811 51 566 226 1067 533 1528 91 135 289 381 370 459 20 19
33 39 30 44 -3 6 -1 7 5 3 11 -6 27 10 27 29 0 6 5 10 10 10 17 0 34 15 45 38
10 20 10 21 -3 4 -12 -15 -16 -15 -20 -3 -7 16 -57 18 -69 2 -3 -5 -18 -2 -33
8 -21 14 -29 15 -41 5 -12 -9 -14 -7 -14 15 0 26 -2 27 -51 25 -43 -2 -54 1
-69 21 -11 14 -23 21 -33 17 -9 -3 -18 1 -21 9 -4 10 -13 13 -27 9 -15 -5 -22
-2 -26 14 -5 21 -33 30 -33 10z"/>
<path d="M5531 9242 c-81 -142 -206 -408 -246 -522 -42 -122 -75 -265 -75
-331 l0 -47 123 -47 c430 -169 684 -293 960 -471 116 -75 129 -81 152 -71 14
7 25 15 25 20 0 4 6 7 13 7 8 0 22 9 32 20 12 13 14 20 5 20 -9 0 -10 3 -1 13
8 10 7 17 -1 25 -16 16 -38 102 -26 102 5 0 2 13 -6 28 -8 15 -17 46 -21 67
-4 22 -15 69 -24 105 -10 36 -24 92 -31 125 -6 33 -18 89 -25 125 -7 36 -11
68 -9 72 3 4 -6 31 -20 60 -15 33 -27 83 -32 133 -4 44 -8 85 -9 90 0 6 -10
30 -22 55 -18 42 -26 73 -38 172 -3 20 -11 56 -20 80 -8 24 -15 53 -15 66 0
20 4 22 23 17 30 -9 208 -104 228 -121 8 -8 19 -14 24 -14 4 0 24 -12 44 -27
28 -21 32 -22 17 -5 -14 17 -18 37 -18 92 1 38 4 75 8 82 4 7 3 8 -4 4 -7 -4
-12 -2 -12 3 0 6 5 11 11 11 8 0 8 4 -1 15 -6 8 -15 14 -18 13 -4 -1 -15 2
-25 7 -15 6 -16 10 -5 16 7 5 18 9 23 9 6 0 4 -4 -4 -9 -9 -6 -10 -11 -2 -15
6 -4 11 -2 11 5 0 7 11 2 25 -11 13 -12 23 -26 20 -29 -2 -4 0 -13 4 -20 7
-10 9 -10 14 2 6 15 -71 98 -95 104 -116 25 -170 32 -318 42 -96 6 -268 13
-381 16 l-207 7 -51 -90z"/>
<path d="M4780 9039 c-247 -40 -543 -167 -705 -302 -27 -23 -45 -35 -41 -27
13 21 -1 7 -75 -79 -113 -130 -177 -223 -233 -338 -31 -61 -58 -122 -60 -135
-56 -268 -66 -342 -66 -513 0 -426 182 -767 535 -1002 204 -135 488 -239 760
-278 l90 -12 45 38 c25 21 121 114 213 207 l169 169 -103 73 c-291 208 -464
475 -525 810 -24 133 -24 510 -1 670 35 232 83 437 147 624 16 50 30 93 30 98
0 10 -108 8 -180 -3z"/>
<path d="M7950 8918 c0 -32 -55 -308 -86 -433 -21 -86 -84 -294 -100 -332 -4
-10 92 -83 110 -83 6 0 57 124 101 245 19 54 37 100 39 102 5 6 177 -111 256
-174 41 -32 103 -85 137 -117 l63 -58 50 37 c27 20 50 40 50 44 0 11 -99 167
-167 266 -110 157 -410 511 -444 523 -5 2 -9 -7 -9 -20z"/>
<path d="M8050 8205 c-33 -73 -35 -79 -21 -70 6 3 15 -5 22 -17 7 -13 15 -25
19 -28 31 -24 243 -375 325 -540 281 -561 336 -1068 157 -1461 -74 -164 -239
-354 -522 -602 -63 -56 -146 -131 -185 -167 -84 -80 -172 -140 -269 -186 -82
-39 -76 -43 20 -13 250 77 575 315 795 580 217 261 381 574 443 849 10 41 29
120 43 175 84 334 7 690 -217 1000 -113 156 -317 353 -523 504 l-57 42 -30
-66z"/>
<path d="M9684 7635 c-4 -10 -21 -15 -54 -15 -45 0 -52 -3 -107 -50 -7 -5 -28
-10 -48 -10 -21 0 -35 -5 -35 -12 0 -10 -2 -10 -8 -1 -11 18 -101 20 -113 2
-11 -18 -11 -32 2 -126 64 -453 43 -863 -66 -1281 -83 -314 -252 -689 -413
-914 -62 -87 -25 -50 75 75 241 300 426 614 556 942 151 383 219 719 233 1148
6 191 6 207 -10 207 -11 0 -14 4 -9 13 9 14 13 37 7 37 -3 0 -7 -7 -10 -15z"/>
<path d="M7215 6824 c-278 -319 -641 -627 -1000 -849 -60 -38 -111 -69 -111
-69 -4 -2 63 -837 67 -841 3 -2 81 -12 175 -21 189 -18 637 -14 774 7 41 6 86
11 100 10 20 -1 22 1 10 9 -13 8 -12 10 3 10 12 0 20 10 24 31 3 17 12 33 19
36 8 3 14 12 14 20 0 8 9 26 20 41 14 18 17 28 9 32 -7 5 -8 10 -1 14 12 7 42
64 42 78 0 6 10 24 22 41 38 53 56 96 50 119 -3 14 -1 19 6 14 7 -4 12 -1 12
7 0 7 9 23 19 34 11 11 23 37 26 57 4 19 14 41 22 47 22 19 44 67 33 71 -6 2
3 18 20 36 24 26 30 43 31 80 2 46 2 46 9 12 l7 -35 2 32 c0 17 6 35 11 38 6
3 10 23 10 43 0 34 1 35 15 16 31 -41 13 -297 -32 -454 -15 -52 -88 -234 -103
-255 -4 -5 -22 -37 -40 -70 -30 -53 -31 -58 -10 -40 39 33 139 141 193 207
179 223 331 538 344 713 4 66 2 74 -35 150 -75 152 -215 327 -471 588 -90 92
-167 167 -170 167 -3 0 -55 -57 -116 -126z"/>
<path d="M6595 6739 c-128 -52 -371 -93 -633 -106 -124 -6 -133 -8 -137 -27
-3 -12 -14 -59 -25 -105 -11 -47 -17 -87 -15 -90 16 -16 315 73 465 139 148
64 427 210 400 209 -3 0 -27 -9 -55 -20z"/>
<path d="M8815 6393 c-258 -888 -894 -1587 -1847 -2029 -450 -209 -1031 -379
-1485 -435 -57 -7 -103 -15 -103 -19 0 -9 240 -55 400 -76 175 -24 618 -24
780 -1 468 69 847 206 1195 435 442 289 782 693 1069 1269 79 157 186 419 186
452 0 11 5 23 11 26 6 4 8 14 5 22 -4 9 -1 22 5 29 8 10 8 14 1 14 -6 0 -16
-8 -21 -17 -9 -16 -10 -15 -11 5 0 14 -4 21 -11 16 -6 -3 -9 -15 -6 -25 3 -10
1 -22 -4 -25 -5 -3 -9 2 -9 10 0 11 -10 16 -32 17 -28 2 -29 2 -8 6 47 9 46
23 -2 23 -27 0 -50 6 -57 14 -12 14 -64 29 -56 15 3 -4 1 -10 -5 -14 -13 -8
-13 10 0 54 11 40 34 280 27 287 -3 3 -13 -21 -22 -53z"/>
<path d="M4797 5418 c-96 -70 -477 -156 -972 -218 -93 -12 -171 -23 -173 -24
-1 -2 95 -123 213 -268 l216 -265 62 -21 c142 -46 347 -79 677 -107 201 -18
911 -39 920 -27 6 7 90 503 90 529 0 6 -21 15 -47 18 -247 34 -562 160 -874
350 l-86 52 -26 -19z"/>
<path d="M1922 4959 c-524 -40 -1093 -315 -1556 -751 l-99 -94 267 -211 267
-212 75 82 c235 259 540 472 789 550 136 43 195 50 343 44 155 -6 271 -33 398
-92 206 -95 375 -279 442 -482 23 -72 25 -91 24 -238 -2 -251 -32 -406 -107
-560 -59 -121 -119 -191 -283 -327 -333 -278 -1120 -885 -2249 -1736 l-233
-174 0 -229 0 -229 1900 0 1900 0 0 26 0 26 48 -40 c26 -21 67 -52 91 -68 l45
-29 -1992 -3 -1992 -2 0 -105 0 -105 2695 0 2695 0 97 36 c54 20 143 58 198
84 283 136 508 354 604 585 30 70 56 166 42 149 -4 -5 -32 -41 -63 -79 -57
-71 -69 -83 -168 -166 -234 -197 -559 -327 -955 -381 -141 -19 -490 -16 -604
6 -451 84 -844 364 -1145 814 -39 59 -91 144 -114 190 -24 45 -45 82 -47 82
-11 0 72 -227 134 -363 17 -38 31 -71 31 -73 0 -2 -360 -4 -800 -4 l-800 0 0
29 c0 28 2 30 48 33 l47 3 3 47 3 47 42 3 c35 2 43 7 45 26 3 19 9 22 53 22
48 0 49 1 49 30 l0 30 -220 2 -221 3 188 142 c103 79 267 203 363 276 96 73
335 253 530 401 195 148 360 274 367 280 6 6 17 56 23 111 73 629 345 1161
723 1415 79 53 78 47 11 189 -187 397 -573 712 -1064 870 -291 93 -623 139
-868 120z"/>
<path d="M1770 4150 c-152 -37 -318 -123 -488 -249 -103 -77 -317 -284 -409
-394 -39 -47 -71 -76 -79 -73 -7 3 -157 113 -334 246 -176 132 -323 240 -327
239 -5 0 -36 -36 -70 -79 l-63 -79 123 -84 c67 -47 255 -175 417 -286 l295
-201 84 92 c140 154 359 366 464 450 165 132 269 190 397 223 77 20 255 22
350 5 188 -34 362 -131 471 -262 l49 -59 0 54 c0 227 -186 406 -479 461 -114
22 -304 20 -401 -4z"/>
<path d="M8585 3754 c-430 -49 -773 -200 -1026 -453 -167 -168 -212 -259 -213
-431 0 -119 21 -204 81 -325 104 -206 214 -315 431 -424 l83 -42 -3 -51 -3
-51 -75 -18 c-252 -60 -460 -216 -550 -414 -48 -105 -63 -199 -58 -361 5 -138
6 -145 41 -219 51 -107 124 -209 214 -298 100 -99 184 -158 308 -218 127 -61
218 -91 380 -126 l130 -28 430 0 c472 0 533 5 761 65 225 60 376 140 504 269
130 131 187 253 211 453 20 175 -14 375 -93 537 -113 230 -306 372 -540 396
-63 6 -68 8 -68 30 0 19 15 32 78 66 245 134 413 302 467 467 9 28 15 56 13
61 -2 5 -45 -17 -96 -49 -569 -358 -1245 -469 -1645 -269 -88 44 -200 130
-248 191 -165 209 -134 412 93 623 87 80 147 116 248 149 115 38 214 50 363
43 387 -16 674 -199 703 -447 12 -107 -41 -254 -140 -387 -25 -35 -41 -63 -35
-63 17 0 217 88 279 123 163 91 300 204 364 302 135 203 84 425 -139 602 -92
74 -277 169 -410 212 -104 33 -253 65 -375 80 -77 10 -392 13 -465 5z m420
-1930 c112 -19 246 -63 321 -106 92 -51 179 -139 219 -222 40 -82 55 -149 55
-250 0 -198 -93 -348 -270 -434 -162 -80 -268 -94 -670 -88 -266 3 -302 5
-368 25 -208 61 -333 185 -371 369 -16 76 -14 218 4 287 56 215 259 361 580
419 112 20 385 20 500 0z"/>
<path d="M8586 1684 c-97 -19 -160 -41 -251 -87 -96 -49 -209 -155 -249 -234
-14 -29 -24 -53 -22 -53 3 0 32 16 66 36 141 83 332 153 475 174 233 35 664
-62 798 -180 l37 -32 0 29 c0 115 -106 229 -272 293 -159 62 -422 86 -582 54z"/>
<path d="M4715 3555 c-239 -33 -500 -131 -719 -269 -48 -31 -90 -56 -93 -56
-2 0 -1 64 2 143 l6 142 -103 -105 c-165 -168 -285 -325 -386 -505 -88 -155
-150 -338 -153 -449 -1 -28 -8 -75 -16 -104 -101 -399 -17 -886 221 -1270 251
-404 610 -654 1083 -754 96 -20 136 -23 348 -23 261 1 335 10 522 64 396 114
736 362 947 688 l46 72 0 839 0 839 -79 94 c-161 192 -336 334 -563 454 -324
171 -729 247 -1063 200z m420 -400 c489 -141 757 -555 782 -1205 23 -626 -218
-1094 -643 -1249 -183 -67 -386 -77 -557 -27 -369 108 -615 404 -736 882 -68
267 -80 456 -42 639 107 514 370 849 754 960 147 43 295 43 442 0z"/>
<path d="M4760 3075 c-302 -60 -515 -307 -614 -710 -25 -104 -42 -194 -34
-185 3 3 20 39 39 80 84 189 204 348 332 444 131 98 231 135 387 143 342 18
634 -173 795 -520 30 -65 33 -68 28 -32 -11 80 -54 226 -91 313 -109 253 -297
420 -524 466 -91 19 -227 19 -318 1z"/>
<path d="M7145 3560 c-16 -4 -84 -19 -150 -33 -66 -14 -257 -55 -425 -91 -168
-36 -322 -68 -342 -71 -21 -4 -38 -9 -38 -12 0 -2 81 -91 180 -196 l180 -192
-1 -1330 0 -1330 321 -3 320 -2 0 239 0 238 -44 94 c-25 52 -57 135 -72 184
-24 80 -27 107 -28 240 -1 98 4 169 13 205 20 78 65 190 101 248 l30 49 0 887
c0 487 -3 886 -7 885 -5 0 -21 -4 -38 -9z"/>
<path d="M8645 3180 c-157 -25 -278 -83 -377 -181 -56 -57 -117 -144 -106
-154 2 -1 46 22 98 51 181 103 374 164 518 164 196 0 375 -65 487 -177 34 -34
37 -35 31 -13 -13 41 -73 127 -124 175 -53 51 -140 98 -222 121 -70 18 -227
26 -305 14z"/>
<path d="M3080 2046 c-25 -19 -205 -151 -400 -295 -195 -144 -426 -313 -512
-377 -87 -63 -158 -117 -158 -120 0 -2 63 -4 139 -4 l139 0 169 123 c491 359
630 462 651 481 21 21 23 29 20 123 l-3 102 -45 -33z"/>
<path d="M7440 341 l0 -191 -460 0 -460 0 0 -75 0 -75 1363 0 1364 0 109 31
c248 69 473 149 609 216 89 44 188 103 183 108 -2 2 -57 -15 -123 -36 -280
-93 -611 -169 -885 -206 -192 -26 -723 -25 -890 0 -324 50 -470 121 -749 365
l-61 54 0 -191z"/>
</g>
</svg>
